# xmcd
#
# Track frame offsets: 
#        150
#        19515
#        36581
#        54769
#        72949
#        88902
#        108660
#        129061
#        157626
#        179172
#
# Disc length: 2737 seconds
#
# Revision: 0
# Processed by: cddbd v1.5PL3 Copyright (c) Steve Scherf et al.
# Submitted via: ExactAudioCopy v0.95a3
#
DISCID=7c0aaf0a
DTITLE=Driza - Vision
DYEAR=2000
DGENRE=Dance
TTITLE0=Rhythm Of Life
TTITLE1=Let It Out
TTITLE2=Confusion
TTITLE3=Dream On
TTITLE4=One Reason
TTITLE5=Secret Fantasy
TTITLE6=Used To Be Me
TTITLE7=Rumours
TTITLE8=Taking Chances
TTITLE9=Vision
EXTD=
EXTT0=
EXTT1=
EXTT2=
EXTT3=
EXTT4=
EXTT5=
EXTT6=
EXTT7=
EXTT8=
EXTT9=
PLAYORDER=
